<svg xmlns="http://www.w3.org/2000/svg" viewBox="0 0 250 125"><defs><style>.cls-1{fill:#cfdbd6;}</style></defs><g id="Guias"><path class="cls-1" d="M42.68,125H0v-7.59l12-10.17V26.44l-12-8V10.85L26.47,0H35V112.12l12.16,4.07Z"/><path class="cls-1" d="M245.54,125H202.86V117.4l12-10.17V26.43l-12-8V10.84L229.33,0h8.51V112.11L250,116.18Z"/><path class="cls-1" d="M93.4,125H50.73v-7.59l12-10.16V64.63l-12-6.91V50.13L77.2,39.29h8.51v72.84l12.15,4.06Z"/><path class="cls-1" d="M144.13,125H101.45v-7.59l12-10.16V70.4l-12-6.91V55.9l26.47-10.84h8.51v67.06l12.15,4.07Z"/><path class="cls-1" d="M194.83,125H152.16v-7.59l12-10.16V75.65l-12-6.91V61.15l26.47-10.84h8.5v61.82l12.16,4.06Z"/></g></svg>