<svg xmlns="http://www.w3.org/2000/svg" viewBox="0 0 500 125"><defs><style>.cls-1{fill:#cfdbd6;}</style></defs><g id="Guias"><path class="cls-1" d="M42.12,123.61H0v-7.47l11.86-10V26L0,18.16V10.69L26.13,0h8.39V110.93l12,4Z"/><path class="cls-1" d="M127.84,123.61H97.45V112L82.39,123.88A18.09,18.09,0,0,1,75.72,125q-12.8,0-18.46-6.27a21.74,21.74,0,0,1-5.66-15.09,18.77,18.77,0,0,1,3.19-10.21A34.38,34.38,0,0,1,64,84.1H97.45V81.83q0-7.33-4-10.81T82.79,67.55q-9.33,0-24.4,7.34l-4-7.61,18.53-15a56.61,56.61,0,0,1,15.87-2q14.92,0,23.12,6.81t8.2,19.75v33.38l12,4.67ZM98.09,101.46V92.91H76.63a12.46,12.46,0,0,0-1.54,3,9.9,9.9,0,0,0-.46,3.13A7.49,7.49,0,0,0,77,104.66a8.51,8.51,0,0,0,6.2,2.27v.13Q90,107.06,98.09,101.46Z"/><path class="cls-1" d="M495.73,123.61H465.34V112l-15.06,11.88a18.09,18.09,0,0,1-6.67,1.07q-12.8,0-18.46-6.27a21.74,21.74,0,0,1-5.66-15.09,18.71,18.71,0,0,1,3.2-10.21,34.33,34.33,0,0,1,9.19-9.28h33.46V81.83q0-7.33-4-10.81t-10.66-3.47q-9.33,0-24.39,7.34l-4-7.61,18.53-15a56.48,56.48,0,0,1,15.86-2q14.93,0,23.13,6.81T488,76.89v33.38l12,4.67Zm-31.42-22.15V92.91H442.85a12.77,12.77,0,0,0-1.53,3,9.61,9.61,0,0,0-.47,3.13,7.52,7.52,0,0,0,2.33,5.61,8.53,8.53,0,0,0,6.2,2.27v.13Q456.18,107.06,464.31,101.46Z"/><path class="cls-1" d="M355.23,61.06q7.66,10.68,7.4,29.63h-48q1.33,8.15,5.74,13a14.7,14.7,0,0,0,11.46,4.87q9.33,0,26.79-9.34l4,7.61L342.37,123a74.73,74.73,0,0,1-18.26,2,33.82,33.82,0,0,1-17.53-4.61,32.12,32.12,0,0,1-12.13-12.61A36.69,36.69,0,0,1,290.12,90a32.36,32.36,0,0,1,6.79-19.69,50.17,50.17,0,0,1,17-14.55q10.2-5.41,19.66-5.41Q347.56,50.38,355.23,61.06ZM317.44,69.8q-2.93,3.95-3.2,12.08H339.7q-1.06-8.26-3.93-12.14t-9.66-3.87h.13Q320.38,65.87,317.44,69.8Z"/><path class="cls-1" d="M410,123.61H367.89v-7.48l11.87-10V26l-11.87-7.88V10.68L394,0h8.4V110.92l12,4Z"/><path class="cls-1" d="M182.53,123.62H140.41v-7.48l11.87-10v-42l-11.87-6.81V49.87l26.13-10.68h8.39v71.75l12,4Z"/><path class="cls-1" d="M232.59,123.61H190.47v-7.47l11.86-10V69.84L190.47,63V55.56l26.12-10.68H225v66.05l12,4Z"/><path class="cls-1" d="M282.83,123.62H240.72v-7.48l11.86-10V75L240.72,68.2V60.73l26.12-10.68h8.4v60.89l12,4Z"/></g></svg>